<svg xmlns="http://www.w3.org/2000/svg" width="40" height="33" fill="none" viewBox="0 0 40 33">
  <path fill="#fff" d="M.485 2.786a2 2 0 012-2h35a2 2 0 012 2v28a2 2 0 01-2 2h-35a2 2 0 01-2-2v-28z"/>
  <g clip-path="url(#clip0)">
    <path fill="#40A9FF" d="M22.227 18.34h-4.484v-1.107h4.485v1.107z"/>
  </g>
  <path fill="#40A9FF" d="M2.485 1.786h35v-2h-35v2zm36 1v28h2v-28h-2zm-1 29h-35v2h35v-2zm-36-1v-28h-2v28h2zm1 1a1 1 0 01-1-1h-2a3 3 0 003 3v-2zm36-1a1 1 0 01-1 1v2a3 3 0 003-3h-2zm-1-29a1 1 0 011 1h2a3 3 0 00-3-3v2zm-35-2a3 3 0 00-3 3h2a1 1 0 011-1v-2z"/>
  <defs>
    <clipPath id="clip0">
      <path fill="#fff" d="M16.485 5.786h7v22h-7z"/>
    </clipPath>
  </defs>
</svg>
