<svg xmlns="http://www.w3.org/2000/svg" width="26" height="26" fill="none" viewBox="0 0 26 26">
  <path fill="#000" d="M16.003 13l9.348-9.348c.257-.257.399-.6.399-.966s-.142-.71-.4-.967L24.532.9c-.257-.258-.6-.4-.967-.4-.366 0-.709.142-.966.4l-9.348 9.347L3.903.9c-.257-.258-.6-.4-.967-.4-.366 0-.71.142-.966.4l-.82.819a1.368 1.368 0 000 1.933L10.497 13 1.15 22.347a1.359 1.359 0 00-.399.967c0 .366.142.71.399.967l.82.819c.256.258.6.4.966.4s.71-.142.967-.4l9.347-9.347 9.347 9.347c.258.258.601.4.967.4s.71-.142.967-.4l.82-.819c.257-.257.398-.6.398-.967 0-.366-.141-.71-.399-.967L16.003 13z"/>
</svg>
